<?xml version="1.0" encoding="UTF-8" standalone="no"?>
<svg
   viewBox="0 0 18 24"
   version="1.1"
   id="svg4"
   sodipodi:docname="clipboard-regular.svg"
   inkscape:export-filename="clipboard-regular.png"
   inkscape:export-xdpi="4.5"
   inkscape:export-ydpi="4.5"
   width="18"
   height="24"
   inkscape:version="1.2.2 (732a01da63, 2022-12-09)"
   xmlns:inkscape="http://www.inkscape.org/namespaces/inkscape"
   xmlns:sodipodi="http://sodipodi.sourceforge.net/DTD/sodipodi-0.dtd"
   xmlns="http://www.w3.org/2000/svg"
   xmlns:svg="http://www.w3.org/2000/svg">
  <defs
     id="defs8" />
  <sodipodi:namedview
     id="namedview6"
     pagecolor="#505050"
     bordercolor="#eeeeee"
     borderopacity="1"
     inkscape:showpageshadow="0"
     inkscape:pageopacity="0"
     inkscape:pagecheckerboard="0"
     inkscape:deskcolor="#505050"
     showgrid="false"
     inkscape:zoom="16.046875"
     inkscape:cx="15.361246"
     inkscape:cy="15.984421"
     inkscape:window-width="1663"
     inkscape:window-height="1054"
     inkscape:window-x="563"
     inkscape:window-y="210"
     inkscape:window-maximized="0"
     inkscape:current-layer="svg4" />
  <!--! Font Awesome Pro 6.4.0 by @fontawesome - https://fontawesome.com License - https://fontawesome.com/license (Commercial License) Copyright 2023 Fonticons, Inc. -->
  <path
     d="M 13.125,3 H 15 c 1.654688,0 3,1.3453125 3,3 v 15 c 0,1.654688 -1.345312,3 -3,3 H 3 C 1.3453125,24 0,22.654688 0,21 V 6 C 0,4.3453125 1.3453125,3 3,3 h 1.875 0.45 C 5.671875,1.2890625 7.1859375,0 9,0 c 1.814062,0 3.328125,1.2890625 3.675,3 z M 3,5.25 C 2.5875,5.25 2.25,5.5875 2.25,6 v 15 c 0,0.4125 0.3375,0.75 0.75,0.75 h 12 c 0.4125,0 0.75,-0.3375 0.75,-0.75 V 6 C 15.75,5.5875 15.4125,5.25 15,5.25 H 14.25 V 6.375 C 14.25,6.9984375 13.748438,7.5 13.125,7.5 H 9 4.875 C 4.2515625,7.5 3.75,6.9984375 3.75,6.375 V 5.25 Z M 9,4.875 a 1.125,1.125 0 1 0 0,-2.25 1.125,1.125 0 1 0 0,2.25 z"
     id="path2"
     style="fill:#ffffff;stroke-width:0.0468749" />
</svg>
