<?xml version="1.0" encoding="UTF-8" standalone="no"?>
<svg
   viewBox="0 0 512 512"
   version="1.1"
   id="svg260"
   sodipodi:docname="wrench-solid.svg"
   inkscape:version="1.2.2 (732a01da63, 2022-12-09)"
   xmlns:inkscape="http://www.inkscape.org/namespaces/inkscape"
   xmlns:sodipodi="http://sodipodi.sourceforge.net/DTD/sodipodi-0.dtd"
   xmlns="http://www.w3.org/2000/svg"
   xmlns:svg="http://www.w3.org/2000/svg">
  <defs
     id="defs264" />
  <sodipodi:namedview
     id="namedview262"
     pagecolor="#505050"
     bordercolor="#eeeeee"
     borderopacity="1"
     inkscape:showpageshadow="0"
     inkscape:pageopacity="0"
     inkscape:pagecheckerboard="0"
     inkscape:deskcolor="#505050"
     showgrid="false"
     inkscape:zoom="2.0058594"
     inkscape:cx="255.75073"
     inkscape:cy="255.75073"
     inkscape:window-width="3440"
     inkscape:window-height="1369"
     inkscape:window-x="-8"
     inkscape:window-y="-8"
     inkscape:window-maximized="1"
     inkscape:current-layer="svg260" />
  <!--! Font Awesome Pro 6.4.0 by @fontawesome - https://fontawesome.com License - https://fontawesome.com/license (Commercial License) Copyright 2023 Fonticons, Inc. -->
  <path
     d="M352 320c88.4 0 160-71.6 160-160c0-15.3-2.2-30.1-6.2-44.2c-3.1-10.8-16.4-13.2-24.3-5.3l-76.8 76.8c-3 3-7.1 4.7-11.3 4.7H336c-8.8 0-16-7.2-16-16V118.6c0-4.2 1.7-8.3 4.7-11.3l76.8-76.8c7.9-7.9 5.4-21.2-5.3-24.3C382.1 2.2 367.3 0 352 0C263.6 0 192 71.6 192 160c0 19.1 3.4 37.5 9.5 54.5L19.9 396.1C7.2 408.8 0 426.1 0 444.1C0 481.6 30.4 512 67.9 512c18 0 35.3-7.2 48-19.9L297.5 310.5c17 6.2 35.4 9.5 54.5 9.5zM80 408a24 24 0 1 1 0 48 24 24 0 1 1 0-48z"
     id="path258"
     style="fill:#ffffff" />
</svg>
